<svg width="24" height="24" viewBox="0 0 24 24" fill="none" xmlns="http://www.w3.org/2000/svg"><path fill-rule="evenodd" clip-rule="evenodd" d="M.628 24h22.744a.632.632 0 0 0 .592-.414.598.598 0 0 0 .036-.206.615.615 0 0 0-.184-.438.632.632 0 0 0-.444-.181h-2.526V1.859c0-.493-.198-.966-.552-1.314A1.9 1.9 0 0 0 18.961 0H5.188a1.923 1.923 0 0 0-.805.178c-.194.09-.373.214-.527.367a1.846 1.846 0 0 0-.553 1.314V22.76H.628a.632.632 0 0 0-.444.181.615.615 0 0 0 0 .877.632.632 0 0 0 .444.181zm13.838-1.24h5.124V1.86a.615.615 0 0 0-.184-.438.633.633 0 0 0-.445-.182H5.188a.632.632 0 0 0-.529.286.604.604 0 0 0-.099.334V22.76h4.734v-5.282c0-.165.066-.322.184-.438a.633.633 0 0 1 .444-.182h3.916a.633.633 0 0 1 .582.386c.03.074.046.153.046.234v5.282zm-3.915 0h2.659V18.1h-2.66v4.662zm.21-16.808H8.529v2.201h2.234V5.952zm5.032 0H13.56v2.201h2.233V5.952zm-7.265 4.962h2.234v2.202H8.528v-2.202zm7.265 0H13.56v2.202h2.233v-2.202z" fill="#333"/></svg>