<svg width="20" height="20" viewBox="0 0 20 20" fill="none" xmlns="http://www.w3.org/2000/svg"><g clip-path="url(#a)"><path fill-rule="evenodd" clip-rule="evenodd" d="M8.029 3c3.922 0 6.88 2.506 6.88 5.833 0 3.23-2.68 5.4-6.668 5.4a9.39 9.39 0 0 1-1.688-.2 9.23 9.23 0 0 1-2.73 2.077.206.206 0 0 1-.2-.016.215.215 0 0 1-.097-.181v-2.869a5.26 5.26 0 0 1-1.761-1.784A5.496 5.496 0 0 1 1 8.833C1 5.567 4.087 3 8.029 3zm-1.51 10.583a9.446 9.446 0 0 0 1.722.215c3.737 0 6.247-1.996 6.247-4.968 0-3.078-2.777-5.398-6.459-5.398-3.705 0-6.607 2.368-6.607 5.401.07.81.328 1.59.752 2.272a4.916 4.916 0 0 0 1.685 1.649.214.214 0 0 1 .092.177v2.626a9.06 9.06 0 0 0 2.37-1.905.214.214 0 0 1 .198-.069zm9.728-4.433a.194.194 0 0 1 .157-.014C18.175 9.739 19 10.708 19 12.188a3.66 3.66 0 0 1-.503 1.572 3.507 3.507 0 0 1-1.133 1.167v1.855a.228.228 0 0 1-.075.17.188.188 0 0 1-.17.043 3.417 3.417 0 0 1-1.667-1.068 4.005 4.005 0 0 0-.217.06c-.238.081-.485.127-.735.138a4.11 4.11 0 0 1-2.781-.917.23.23 0 0 1-.043-.308.207.207 0 0 1 .134-.086.194.194 0 0 1 .152.04 3.751 3.751 0 0 0 2.538.834c.212-.01.422-.05.624-.117.12-.034.239-.069.356-.092a.192.192 0 0 1 .104.008.205.205 0 0 1 .088.062c.346.418.785.741 1.28.943v-1.68a.23.23 0 0 1 .023-.1.216.216 0 0 1 .065-.079c.42-.26.778-.616 1.046-1.04a3.43 3.43 0 0 0 .502-1.41c0-1.283-.713-2.09-2.312-2.636a.203.203 0 0 1-.119-.108.233.233 0 0 1-.013-.167.215.215 0 0 1 .103-.122zM5.09 7.113a.267.267 0 0 1 .071-.185.25.25 0 0 1 .176-.078h5.236c.067 0 .131.028.179.077a.267.267 0 0 1 0 .371.249.249 0 0 1-.18.077H5.338a.242.242 0 0 1-.176-.078.26.26 0 0 1-.07-.184zm.247 2.362a.249.249 0 0 0-.18.077.268.268 0 0 0 0 .371c.048.05.113.077.18.077h3.6a.249.249 0 0 0 .179-.077.268.268 0 0 0 0-.371.249.249 0 0 0-.18-.077h-3.6z" fill="#147EE2" stroke="#147EE2" stroke-width=".6"/></g><defs><clipPath id="a"><path fill="#fff" d="M0 0h20v20H0z"/></clipPath></defs></svg>